<!DOCTYPE svg PUBLIC "-//W3C//DTD SVG 1.1//EN" "http://www.w3.org/Graphics/SVG/1.1/DTD/svg11.dtd">
<!-- Uploaded to: SVG Find, www.svgfind.com, Transformed by: SVG Find Mixer Tools -->
<svg fill="#000000" width="64px" height="64px" version="1.1" viewBox="144 144 512 512" xmlns="http://www.w3.org/2000/svg" stroke="#000000" stroke-width="10.24">
<g id="SVGRepo_bgCarrier" stroke-width="0"/>
<g id="SVGRepo_tracerCarrier" stroke-linecap="round" stroke-linejoin="round"/>
<g id="SVGRepo_iconCarrier"> <path d="m602.42 509.5h-13.496v-201.69c0.26562-5.1719-1.5195-10.238-4.9727-14.098s-8.293-6.1992-13.461-6.5078h-111.66l15.938-15.938h-0.003907c5.1758-5.1367 8.0898-12.125 8.1016-19.418 0.011718-7.293-2.8789-14.293-8.0352-19.449s-12.156-8.0469-19.445-8.0352c-7.293 0.011718-14.281 2.9258-19.422 8.1016l-55.312 55.316-16.559-16.559c-4.8633-4.875-11.379-7.7383-18.254-8.0273-6.875-0.28516-13.609 2.0234-18.859 6.4688-5.2539 4.4492-8.6406 10.711-9.4883 17.539h-87.992c-5.168 0.30859-10.008 2.6484-13.461 6.5078-3.4492 3.8594-5.2383 8.9258-4.9727 14.098v201.69h-13.496c-4.6797-0.082031-9.2031 1.6953-12.574 4.9375-3.375 3.2461-5.3203 7.6992-5.418 12.379 0.41406 13.32 6.0898 25.938 15.785 35.082 9.6953 9.1484 22.621 14.078 35.945 13.719h337.38c13.32 0.35937 26.246-4.5703 35.941-13.719 9.6953-9.1445 15.371-21.762 15.785-35.082-0.09375-4.6797-2.043-9.1328-5.418-12.379-3.3711-3.2422-7.8945-5.0195-12.574-4.9375zm-266.07-227.07c2.2188-2.2227 5.2305-3.4688 8.3711-3.4688 3.0898-0.007812 6.0547 1.2148 8.2383 3.3984l22.125 22.125c3.125 2.9531 8.0078 2.9531 11.133 0l60.879-60.879v0.003907c2.1836-2.2266 5.168-3.4883 8.2891-3.5 3.1172-0.015625 6.1133 1.2148 8.3203 3.4219 2.207 2.207 3.4414 5.2031 3.4258 8.3203-0.011719 3.1211-1.2734 6.1055-3.4961 8.293l-76.336 76.328c-1.8203 1.7852-4.2656 2.8047-6.8164 2.8359-2.5156 0.007812-4.9297-0.98828-6.7031-2.7695l-37.5-37.496c-4.5625-4.6133-4.5273-12.043 0.070313-16.613zm-109.54 25.387c0-2.9219 1.6172-4.8633 2.6914-4.8633l90.609 0.003906c1.2734 2.6641 2.9766 5.1016 5.0391 7.2148l37.5 37.496c4.7188 4.7461 11.141 7.4062 17.836 7.3867l0.066407-0.003906c6.7148 0 13.152-2.6797 17.887-7.4453l44.648-44.648 127.4-0.003906c1.0742 0 2.6914 1.9414 2.6914 4.8633v201.69h-109.77c-4.0742 0.054688-7.8945 1.9805-10.355 5.2266-2.8672 3.2109-7.0078 4.9883-11.309 4.8477h-83.504c-4.2969 0.14062-8.4375-1.6328-11.305-4.8438-2.4609-3.2461-6.2852-5.1797-10.359-5.2305h-109.77zm341.88 252.06h-337.38c-9.1484 0.36328-18.07-2.9102-24.812-9.1055s-10.758-14.805-11.176-23.949c0-0.74219 0.92188-1.5703 2.25-1.5703l137.63-0.003906c5.8594 6.5391 14.266 10.215 23.039 10.074h83.504c8.7773 0.13672 17.18-3.5352 23.039-10.074h137.63c1.3242 0 2.25 0.83203 2.25 1.5703v0.003906c-0.41406 9.1445-4.4336 17.754-11.176 23.949-6.7422 6.1953-15.66 9.4688-24.809 9.1055z"/> </g>
</svg>