<!DOCTYPE svg PUBLIC "-//W3C//DTD SVG 1.1//EN" "http://www.w3.org/Graphics/SVG/1.1/DTD/svg11.dtd">
<!-- Uploaded to: SVG Find, www.svgfind.com, Transformed by: SVG Find Mixer Tools -->
<svg fill="#000000" width="64px" height="64px" version="1.1" viewBox="144 144 512 512" xmlns="http://www.w3.org/2000/svg" stroke="#000000" stroke-width="5.12">
<g id="SVGRepo_bgCarrier" stroke-width="0"/>
<g id="SVGRepo_tracerCarrier" stroke-linecap="round" stroke-linejoin="round"/>
<g id="SVGRepo_iconCarrier"> <path d="m516.88 364.33h-19.949l-0.003906-69.523c0-34.633-18.473-66.633-48.465-83.949-29.992-17.312-66.941-17.312-96.934 0-29.992 17.316-48.465 49.316-48.465 83.949v69.527l-19.953-0.003906c-10.688 0-20.941 4.2461-28.5 11.805-7.5586 7.5586-11.805 17.812-11.805 28.5v157.19c0 10.691 4.2461 20.941 11.805 28.5 7.5586 7.5586 17.812 11.805 28.5 11.805h233.77c10.688 0 20.941-4.2461 28.5-11.805 7.5586-7.5586 11.805-17.809 11.805-28.5v-157.19c0-10.688-4.2461-20.941-11.805-28.5-7.5586-7.5586-17.812-11.805-28.5-11.805zm-193.66-69.523c0-27.434 14.633-52.781 38.391-66.496 23.754-13.715 53.023-13.715 76.781 0 23.754 13.715 38.387 39.062 38.387 66.496v69.527l-153.56-0.003906zm86.855 180.96v38.09c0 5.5664-4.5117 10.078-10.074 10.078-5.5664 0-10.078-4.5117-10.078-10.078v-38.09c-3.0664-1.7305-5.6172-4.25-7.3906-7.2969-1.7695-3.0469-2.6953-6.5078-2.6836-10.031 0-7.1992 3.8398-13.855 10.074-17.453 6.2344-3.6016 13.918-3.6016 20.152 0 6.2344 3.5977 10.078 10.254 10.078 17.453 0.011718 3.5234-0.91797 6.9844-2.6875 10.031-1.7734 3.0469-4.3242 5.5664-7.3906 7.2969z"/> </g>
</svg>