<!DOCTYPE svg PUBLIC "-//W3C//DTD SVG 1.1//EN" "http://www.w3.org/Graphics/SVG/1.1/DTD/svg11.dtd">
<!-- Uploaded to: SVG Find, www.svgfind.com, Transformed by: SVG Find Mixer Tools -->
<svg fill="#000000" width="64px" height="64px" version="1.1" viewBox="144 144 512 512" xmlns="http://www.w3.org/2000/svg" stroke="#000000" stroke-width="0.00512">
<g id="SVGRepo_bgCarrier" stroke-width="0"/>
<g id="SVGRepo_tracerCarrier" stroke-linecap="round" stroke-linejoin="round"/>
<g id="SVGRepo_iconCarrier"> <g> <path d="m604.67 321.28h-92.605l-66.496-133c-3.8906-7.7656-13.324-10.902-21.125-7.043-7.7812 3.8906-10.934 13.348-7.043 21.125l59.457 118.92h-153.72l59.457-118.92c3.8906-7.7812 0.73828-17.234-7.043-21.125-7.7969-3.8594-17.234-0.72266-21.125 7.043l-66.5 133h-92.605c-8.6953 0-15.742 7.043-15.742 15.746v47.234c0 8.7031 7.0508 15.746 15.742 15.746h409.34c8.6953 0 15.742-7.043 15.742-15.746v-47.234c0.003906-8.7031-7.043-15.746-15.738-15.746z"/> <path d="m226.95 579.43c3.1133 23.371 23.238 40.988 46.816 40.988h252.18c23.578 0 43.703-17.621 46.711-40.281 0 0 32.012-163.45 32.012-164.39h-409.35c0 0.92578 31.629 163.68 31.629 163.68zm267.75-0.28516 31.488-125.95c1.0391-4.2266 5.3047-6.75 9.5391-5.7344 4.2188 1.0625 6.7891 5.3359 5.7266 9.5469l-31.488 125.95c-0.89062 3.582-4.0977 5.9648-7.625 5.9648-0.62891 0-1.2773-0.078125-1.9141-0.23047-4.2188-1.0586-6.7852-5.332-5.7266-9.5469zm-47.406-125.01c0.53906-4.3047 4.457-7.4258 8.7852-6.8281 4.3125 0.53906 7.3711 4.4727 6.8359 8.793l-15.742 125.95c-0.5 3.9805-3.8906 6.8867-7.8047 6.8867-0.32422 0-0.65234-0.015625-0.98438-0.0625-4.3125-0.53906-7.3711-4.4727-6.8359-8.793zm-103.38-6.8398c4.3281-0.60156 8.25 2.5234 8.7852 6.8281l15.742 125.95c0.53906 4.3203-2.5234 8.2578-6.8359 8.793-0.32422 0.042968-0.65625 0.058593-0.98047 0.058593-3.9141 0-7.3047-2.9062-7.8047-6.8867l-15.742-125.95c-0.53516-4.3203 2.5234-8.2539 6.8359-8.793zm-79.648 0.14844c4.2344-1.0156 8.5039 1.5078 9.5391 5.7344l31.488 125.95c1.0625 4.2109-1.5078 8.4883-5.7266 9.5469-0.63672 0.15234-1.2852 0.23047-1.9141 0.23047-3.5273 0-6.7344-2.3828-7.625-5.9648l-31.488-125.95c-1.0625-4.2109 1.5039-8.4844 5.7266-9.5469z"/> </g> </g>
</svg>